<?xml version="1.0" encoding="UTF-8"?>
<svg width="70px" height="70px" viewBox="0 0 70 70" version="1.1" xmlns="http://www.w3.org/2000/svg" xmlns:xlink="http://www.w3.org/1999/xlink">
    <!-- Generator: Sketch 52.3 (67297) - http://www.bohemiancoding.com/sketch -->
    <title>Group 15</title>
    <desc>Created with Sketch.</desc>
    <g id="Page-1" stroke="none" stroke-width="1" fill="none" fill-rule="evenodd">
        <g id="07_ticketing_errorstates">
            <g id="Group-14">
                <g id="Group-15">
                    <rect id="Rectangle" fill="#000000" fill-rule="nonzero" x="0" y="0" width="70" height="70"></rect>
                    <path d="M46.8983569,33.5540172 L46.8983569,29.3443398 C46.8983569,28.0270011 45.8205344,26.9491785 44.5031957,26.9491785 L19.3540021,26.9491785 C18.0366634,26.9491785 16.9708166,28.0270011 16.9708166,29.3443398 L16.9708166,33.5540172 C18.2881553,33.5540172 19.3540021,34.6318398 19.3540021,35.9491785 C19.3540021,37.2665172 18.2881553,38.3443398 16.9588408,38.3443398 L16.9588408,42.5540172 C16.9588408,43.8713559 18.0366634,44.9491785 19.3540021,44.9491785 L44.5031957,44.9491785 C45.8205344,44.9491785 46.8983569,43.8713559 46.8983569,42.5540172 L46.8983569,38.3443398 C45.5810182,38.3443398 44.5031957,37.2665172 44.5031957,35.9491785 C44.5031957,34.6318398 45.5810182,33.5540172 46.8983569,33.5540172 Z" id="Fill-255" stroke="#FFFFFF" stroke-width="2" fill="#FFFFFF" transform="translate(31.928599, 35.949178) rotate(-45.000000) translate(-31.928599, -35.949178) "></path>
                    <path d="M54.8983569,32.5540172 L54.8983569,28.3443398 C54.8983569,27.0270011 53.8205344,25.9491785 52.5031957,25.9491785 L27.3540021,25.9491785 C26.0366634,25.9491785 24.9708166,27.0270011 24.9708166,28.3443398 L24.9708166,32.5540172 C26.2881553,32.5540172 27.3540021,33.6318398 27.3540021,34.9491785 C27.3540021,36.2665172 26.2881553,37.3443398 24.9588408,37.3443398 L24.9588408,41.5540172 C24.9588408,42.8713559 26.0366634,43.9491785 27.3540021,43.9491785 L52.5031957,43.9491785 C53.8205344,43.9491785 54.8983569,42.8713559 54.8983569,41.5540172 L54.8983569,37.3443398 C53.5810182,37.3443398 52.5031957,36.2665172 52.5031957,34.9491785 C52.5031957,33.6318398 53.5810182,32.5540172 54.8983569,32.5540172 Z" id="Fill-255-Copy" stroke="#FFFFFF" stroke-width="2" transform="translate(39.928599, 34.949178) rotate(-45.000000) translate(-39.928599, -34.949178) "></path>
                </g>
            </g>
        </g>
    </g>
</svg>